<svg width="32" height="32" viewBox="0 0 32 32" fill="none" xmlns="http://www.w3.org/2000/svg">
<path d="M15.8975 15.6793C18.5703 15.6793 20.737 13.5127 20.737 10.8399C20.737 8.16717 18.5703 6.00049 15.8975 6.00049C13.2248 6.00049 11.0581 8.16717 11.0581 10.8399C11.0581 13.5127 13.2248 15.6793 15.8975 15.6793Z" stroke="white" stroke-width="2" stroke-linecap="round" stroke-linejoin="round"/>
<path d="M16 31C24.2843 31 31 24.2843 31 16C31 7.71573 24.2843 1 16 1C7.71573 1 1 7.71573 1 16C1 24.2843 7.71573 31 16 31Z" stroke="white" stroke-width="2" stroke-linecap="round" stroke-linejoin="round"/>
<path d="M7.42822 27.7772V22.9378C7.42822 21.6014 8.51156 20.5181 9.84794 20.5181H21.9465C23.2829 20.5181 24.3662 21.6014 24.3662 22.9378V27.7772" stroke="white" stroke-width="2" stroke-linecap="round" stroke-linejoin="round"/>
</svg>
