<svg width="35" height="36" viewBox="0 0 35 36" fill="none" xmlns="http://www.w3.org/2000/svg">
<path d="M17.9989 12.9228C16.9573 12.8199 15.9094 13.0415 14.9986 13.5572C14.0879 14.073 13.3587 14.8576 12.9111 15.8037C12.4635 16.7498 12.3192 17.8111 12.4981 18.8424C12.677 19.8736 13.1702 20.8244 13.9103 21.5645C14.6504 22.3046 15.6012 22.7978 16.6324 22.9767C17.6637 23.1556 18.725 23.0113 19.6711 22.5637C20.6172 22.1161 21.4018 21.3869 21.9176 20.4762C22.4333 19.5654 22.6549 18.5175 22.552 17.4759C22.4347 16.3082 21.9173 15.2171 21.0875 14.3873C20.2577 13.5575 19.1666 13.0401 17.9989 12.9228V12.9228ZM30.2224 17.9748C30.2191 18.5266 30.1786 19.0776 30.101 19.6239L33.6871 22.4366C33.8433 22.5661 33.9485 22.7467 33.9841 22.9464C34.0197 23.1461 33.9833 23.3519 33.8815 23.5273L30.4889 29.3971C30.3859 29.5708 30.2248 29.7026 30.0341 29.7692C29.8435 29.8358 29.6354 29.833 29.4466 29.7612L25.8851 28.327C25.6887 28.2488 25.4759 28.2206 25.2659 28.2448C25.0559 28.269 24.8552 28.345 24.6818 28.4659C24.1382 28.8402 23.567 29.1727 22.9732 29.4605C22.7865 29.5513 22.625 29.6866 22.503 29.8546C22.381 30.0225 22.3022 30.2179 22.2736 30.4235L21.7397 34.2222C21.7047 34.4228 21.601 34.6051 21.4465 34.7377C21.292 34.8704 21.0962 34.9453 20.8926 34.9496H14.1074C13.9072 34.9461 13.7141 34.8746 13.5599 34.7467C13.4058 34.6188 13.2998 34.4422 13.2595 34.246L12.7264 30.4529C12.6965 30.245 12.6157 30.0477 12.4911 29.8786C12.3666 29.7095 12.2022 29.5738 12.0125 29.4836C11.4194 29.1972 10.8501 28.8638 10.3103 28.4865C10.1375 28.3662 9.9374 28.2909 9.72817 28.2672C9.51894 28.2435 9.3071 28.2722 9.11175 28.3508L5.55101 29.7842C5.36231 29.856 5.15431 29.859 4.96364 29.7925C4.77297 29.7261 4.61187 29.5945 4.50872 29.4209L1.11614 23.5511C1.01415 23.3757 0.977697 23.1699 1.01329 22.9701C1.04887 22.7704 1.15419 22.5898 1.31048 22.4604L4.34136 20.0808C4.5074 19.949 4.63791 19.7778 4.72102 19.5827C4.80413 19.3877 4.83722 19.175 4.81728 18.9639C4.78873 18.6332 4.77128 18.3032 4.77128 17.9724C4.77128 17.6416 4.78794 17.3164 4.81728 16.9928C4.83504 16.783 4.80033 16.5721 4.71628 16.3791C4.63223 16.1861 4.50148 16.017 4.3358 15.8871L1.30652 13.5074C1.15276 13.3774 1.04966 13.1974 1.01529 12.999C0.980919 12.8006 1.01746 12.5965 1.11852 12.4223L4.5111 6.5525C4.61413 6.37878 4.77518 6.247 4.96585 6.1804C5.15653 6.11379 5.3646 6.11663 5.55339 6.18842L9.11492 7.62255C9.31133 7.70075 9.52406 7.729 9.73407 7.70478C9.94408 7.68055 10.1448 7.6046 10.3182 7.48374C10.8618 7.10944 11.4329 6.77692 12.0268 6.48905C12.2135 6.3983 12.375 6.26298 12.497 6.09504C12.619 5.9271 12.6978 5.73169 12.7264 5.52608L13.2603 1.72738C13.2953 1.52676 13.399 1.34454 13.5535 1.21187C13.708 1.0792 13.9038 1.00431 14.1074 1H20.8926C21.0928 1.00346 21.2859 1.07504 21.4401 1.20293C21.5942 1.33082 21.7002 1.5074 21.7405 1.70358L22.2736 5.49674C22.3035 5.70461 22.3843 5.90187 22.5089 6.07097C22.6334 6.24008 22.7978 6.37579 22.9875 6.46604C23.5806 6.75236 24.1499 7.08579 24.6897 7.46312C24.8625 7.58338 25.0626 7.65874 25.2718 7.68242C25.4811 7.7061 25.6929 7.67735 25.8882 7.59875L29.449 6.16542C29.6377 6.09356 29.8457 6.0906 30.0364 6.15706C30.227 6.22351 30.3881 6.35513 30.4913 6.52871L33.8839 12.3985C33.9859 12.5739 34.0223 12.7797 33.9867 12.9795C33.9511 13.1792 33.8458 13.3598 33.6895 13.4892L30.6586 15.8688C30.4919 16.0002 30.3606 16.1712 30.2768 16.3663C30.193 16.5613 30.1593 16.7742 30.1787 16.9857C30.2049 17.3141 30.2224 17.644 30.2224 17.9748V17.9748Z" stroke="black" stroke-width="2" stroke-linecap="round" stroke-linejoin="round"/>
</svg>
